<svg width="58" height="52" viewBox="0 0 58 52" fill="none" xmlns="http://www.w3.org/2000/svg">
<path d="M48.875 5C49.7701 5 50.6286 5.35558 51.2615 5.98851C51.8944 6.62145 52.25 7.47989 52.25 8.375V35.375C52.25 36.2701 51.8944 37.1286 51.2615 37.7615C50.6286 38.3944 49.7701 38.75 48.875 38.75H16.5223C14.7322 38.7504 13.0156 39.4618 11.75 40.7278L5.85355 46.6242C5.53857 46.9392 5 46.7161 5 46.2706V8.375C5 7.47989 5.35558 6.62145 5.98851 5.98851C6.62145 5.35558 7.47989 5 8.375 5H48.875Z" fill="url(#paint0_radial_627_3326)"/>
<path fill-rule="evenodd" clip-rule="evenodd" d="M5 8.375C5 7.47989 5.35558 6.62145 5.98851 5.98851C6.62145 5.35558 7.47989 5 8.375 5H48.875C49.7701 5 50.6286 5.35558 51.2615 5.98851C51.8944 6.62145 52.25 7.47989 52.25 8.375V35.375C52.25 36.2701 51.8944 37.1286 51.2615 37.7615C50.6286 38.3944 49.7701 38.75 48.875 38.75H16.5223C14.7322 38.7504 13.0156 39.4618 11.75 40.7278L5.85355 46.6242C5.53857 46.9392 5 46.7161 5 46.2706V8.375ZM16.5233 43.75H48.875C51.0962 43.75 53.2264 42.8676 54.797 41.297C56.3676 39.7264 57.25 37.5962 57.25 35.375V8.375C57.25 6.15381 56.3676 4.0236 54.797 2.45298C53.2264 0.882362 51.0962 0 48.875 0H8.375C6.15381 0 4.0236 0.882363 2.45298 2.45298C0.882363 4.0236 0 6.15381 0 8.375V46.2706C0 51.1707 5.9243 53.6245 9.38909 50.1597L15.2855 44.2633C15.6134 43.9353 16.0586 43.7504 16.5223 43.75C16.5226 43.75 16.523 43.75 16.5233 43.75Z" fill="#6116DC"/>
<path d="M34.7935 29.4227C34.0552 29.4227 33.4892 29.1621 33.0954 28.641C32.7017 28.119 32.6771 27.5818 33.0216 27.0296L36.0078 23.0409H33.0547C32.2426 23.0409 31.5476 22.8004 30.9698 22.3193C30.391 21.839 30.1016 21.2614 30.1016 20.5864V16.9046C30.1016 16.2296 30.391 15.6519 30.9698 15.1716C31.5476 14.6906 32.2426 14.45 33.0547 14.45H37.4844C38.2965 14.45 38.9919 14.6906 39.5708 15.1716C40.1486 15.6519 40.4375 16.2296 40.4375 16.9046V22.458C40.4375 22.6421 40.4188 22.8315 40.3814 23.0262C40.345 23.2201 40.2652 23.3989 40.1422 23.5625L36.5654 28.5023C36.3931 28.7886 36.147 29.0136 35.8271 29.1773C35.5072 29.3409 35.1626 29.4227 34.7935 29.4227ZM21.849 28.8705C21.1107 28.8705 20.5447 28.6099 20.1509 28.0887C19.7572 27.5667 19.7325 27.0296 20.0771 26.4773L22.7188 23.0409H19.7656C18.9535 23.0409 18.2585 22.8004 17.6807 22.3193C17.1019 21.839 16.8125 21.2614 16.8125 20.5864V16.9046C16.8125 16.2296 17.1019 15.6519 17.6807 15.1716C18.2585 14.6906 18.9535 14.45 19.7656 14.45H24.1953C25.0074 14.45 25.7029 14.6906 26.2817 15.1716C26.8595 15.6519 27.1484 16.2296 27.1484 16.9046V22.458C27.1484 22.6421 27.1302 22.8315 27.0938 23.0262C27.0564 23.2201 26.9762 23.3989 26.8531 23.5625L23.6208 27.95C23.4486 28.2364 23.2025 28.4614 22.8825 28.625C22.5626 28.7886 22.2181 28.8705 21.849 28.8705Z" fill="#6116DC"/>
<defs>
<radialGradient id="paint0_radial_627_3326" cx="0" cy="0" r="1" gradientUnits="userSpaceOnUse" gradientTransform="translate(28.625 21.625) rotate(90) scale(61 67.8532)">
<stop stop-color="#C8B6FF"/>
<stop offset="1" stop-color="#8445ED"/>
</radialGradient>
</defs>
</svg>
